<svg id="Layer_1" data-name="Layer 1" xmlns="http://www.w3.org/2000/svg" xmlns:xlink="http://www.w3.org/1999/xlink"
     viewBox="0 0 1920 600">
    <defs>
        <style>.cls-1{fill:#36b891;}.cls-2{fill:url(#Безымянный_градиент_12);}.cls-3{fill:#35c4f3;}.cls-4{fill:#fff;}
        </style>
        <linearGradient id="Безымянный_градиент_12" y1="273.58" x2="1920" y2="273.58" gradientUnits="userSpaceOnUse">
            <stop offset="0.01" stop-color="#40b8eb"/>
            <stop offset="0.07" stop-color="#41b0e5"/>
            <stop offset="0.33" stop-color="#438ecb"/>
            <stop offset="0.58" stop-color="#4576b7"/>
            <stop offset="0.81" stop-color="#4667ac"/>
            <stop offset="1" stop-color="#4662a8"/>
        </linearGradient>
    </defs>
    <title>header</title>
    <rect class="cls-1" y="350.35" width="1920" height="249.65"/>
    <path class="cls-2"
          d="M0,0H1920V502.16S1687.1,555.44,1203.18,546c-340.81-6.61-550.81-23.68-820.8-68.07C148,439.44,0,489.1,0,489.1Z"/>
    <path class="cls-3"
          d="M805.93,362.13h22.2L855.87,449l28-86.88H906l20.27,124.59h-22L891.4,408l-25.75,78.64H845.57L820.35,408l-12.87,78.64H785.21Z"/>
    <path class="cls-3"
          d="M1007.11,394.57h22.14v92.09h-22.2V477a42.43,42.43,0,0,1-12.87,9.26A35.36,35.36,0,0,1,980,489a38.61,38.61,0,0,1-29.67-13.83,49.57,49.57,0,0,1-12.49-34.43A50.7,50.7,0,0,1,950,405.83a38,38,0,0,1,29.41-13.64,35.45,35.45,0,0,1,14.94,3.15,40.33,40.33,0,0,1,12.87,9.4Zm-23.36,19.31a22.2,22.2,0,0,0-17.12,7.52,31.42,31.42,0,0,0,0,39.07,23.17,23.17,0,0,0,34.43,0,28.37,28.37,0,0,0,6.89-19.82,27.75,27.75,0,0,0-6.89-19.31,22.73,22.73,0,0,0-17.31-7.79Z"/>
    <path class="cls-3"
          d="M1046.56,394.57h19.31v11.58a24.66,24.66,0,0,1,8.17-10.42,19.6,19.6,0,0,1,11.27-3.54,19.88,19.88,0,0,1,9,2.38l-7.15,19.88a15,15,0,0,0-6.43-2,10.22,10.22,0,0,0-8.69,6.43,62.48,62.48,0,0,0-3.54,25.75v41.7h-22Z"/>
    <path class="cls-3"
          d="M1113.69,356.66a13.36,13.36,0,0,1,10,4.38,15.65,15.65,0,0,1,0,21.24,13.65,13.65,0,0,1-19.28.73c-.26-.24-.5-.48-.74-.73a15.28,15.28,0,0,1-4.18-10.75,14.44,14.44,0,0,1,4.12-10.43A13.34,13.34,0,0,1,1113.69,356.66Zm-11.07,37.91h22.2v92.09h-22.2Z"/>
    <path class="cls-3"
          d="M1145.09,394.57h22.21v9.33a52.33,52.33,0,0,1,13.71-9.27,32.56,32.56,0,0,1,12.55-2.57,29.87,29.87,0,0,1,22.33,9.72,33.64,33.64,0,0,1,7.72,24v60.88h-21.95V446.31a109.82,109.82,0,0,0-1.41-21.88,15.3,15.3,0,0,0-5-8.24,13.72,13.72,0,0,0-8.75-2.83,16,16,0,0,0-11.58,4.7,25.7,25.7,0,0,0-6.44,12.87,108.84,108.84,0,0,0-1,18.66v36.94h-22.47Z"/>
    <path class="cls-3"
          d="M1333.6,447.34h-71.31a24.14,24.14,0,0,0,25.36,21.37,29.31,29.31,0,0,0,21.43-9l18.66,9.14A44.37,44.37,0,0,1,1311,484.09a50.86,50.86,0,0,1-23.17,5,45,45,0,0,1-33.92-13.64,47.57,47.57,0,0,1-12.87-34.3,49.14,49.14,0,0,1,12.87-35,42.87,42.87,0,0,1,32.76-14,44.47,44.47,0,0,1,34,14,51.45,51.45,0,0,1,12.87,36.75Zm-22.21-18.21a23.24,23.24,0,0,0-8.68-12.87,24.47,24.47,0,0,0-15-4.83,25.71,25.71,0,0,0-16.35,5.41,30.52,30.52,0,0,0-8.11,12Z"/>
    <path class="cls-4"
          d="M230.8,92.84h47.56v162q0,38.7-6.52,54.29A52,52,0,0,1,251.19,334a62.68,62.68,0,0,1-34.52,9.2q-40.84,0-69.84-35.39L181,276.42a80.68,80.68,0,0,0,19.55,16.93A32.39,32.39,0,0,0,216,297.69a12.29,12.29,0,0,0,11.33-6.39c2.48-4.21,3.71-13.41,3.71-27.72Z"/>
    <path class="cls-4"
          d="M330,156.71h46.71v86.68a116.72,116.72,0,0,0,3.58,35.26,30.9,30.9,0,0,0,11.47,15.4,33.06,33.06,0,0,0,19.54,5.43,34.68,34.68,0,0,0,19.54-5.37,32,32,0,0,0,11.86-16,118.08,118.08,0,0,0,2.93-33.41v-88H492.1v76.66q0,47.33-7.62,64.77a70.22,70.22,0,0,1-27.43,32.57A85,85,0,0,1,410.73,342a83,83,0,0,1-48.92-13.55,70.28,70.28,0,0,1-26.06-37c-3.65-10.93-5.41-30.86-5.41-59.73Z"/>
    <path class="cls-4" d="M518.48,156.71h47.1l46.58,106.61,46.38-106.61h46.84L627.21,337.36h-30Z"/>
    <path class="cls-4"
          d="M916.9,259.81H768.44a48.33,48.33,0,0,0,17.2,30.66,54.84,54.84,0,0,0,35.63,11.37,62.45,62.45,0,0,0,44.56-17.76L904.92,302a90.67,90.67,0,0,1-35,30,110.45,110.45,0,0,1-48.33,10,96.29,96.29,0,0,1-70.55-26.77,90.26,90.26,0,0,1-27.3-67.13,93.29,93.29,0,0,1,27.17-69,92.16,92.16,0,0,1,68.14-27.28,95.73,95.73,0,0,1,70.81,27.28q27.23,27.35,27.23,72.12Zm-46.18-35.64a45.58,45.58,0,0,0-18.05-24.6,52.82,52.82,0,0,0-31.33-9.45,56.07,56.07,0,0,0-33.88,10.6,58.7,58.7,0,0,0-16.94,23.45Z"/>
    <path class="cls-4"
          d="M954.62,156.71h46.19v18.53A111.07,111.07,0,0,1,1029,156.71a70.17,70.17,0,0,1,26.06-5,63.83,63.83,0,0,1,46.51,18.71c10.68,10.61,16,26.38,16,47.14V337H1072V258a193,193,0,0,0-3-43,27.31,27.31,0,0,0-28.28-21.72,34.46,34.46,0,0,0-24.1,9.2A48.83,48.83,0,0,0,1002.7,228a205.6,205.6,0,0,0-2,36.6V337H954.62Z"/>
    <path class="cls-4"
          d="M1298.32,156.71h46.26V337h-46.26V317.87a91.34,91.34,0,0,1-27.1,18.15,77.52,77.52,0,0,1-29.51,5.55A82.78,82.78,0,0,1,1180,314.49,93.88,93.88,0,0,1,1153.9,247,96.16,96.16,0,0,1,1179,178.43a81,81,0,0,1,61.24-26.7,79.41,79.41,0,0,1,31.14,6.39,85.23,85.23,0,0,1,26.84,18.39Zm-48.53,37.18a47.16,47.16,0,0,0-35.63,14.88A52.91,52.91,0,0,0,1200,247.1a53.27,53.27,0,0,0,14.46,38.32,47,47,0,0,0,35.5,15.14A48,48,0,0,0,1286,285.68a53.53,53.53,0,0,0,14.33-38.9A52.18,52.18,0,0,0,1286,208.45a48.72,48.72,0,0,0-36.22-14.88Z"/>
    <path class="cls-4" d="M1376.24,132.57h-10.3v-7.09h29.25v7.09h-10.61V163.1H1376Z"/>
    <path class="cls-4"
          d="M1431.94,148.54c0-4.54-.33-9.9-.33-15.33h0c-1.24,4.72-2.8,10-4.3,14.43l-4.63,14.57h-6.51l-4-14.44c-1.24-4.41-2.47-9.65-3.45-14.56h0c0,5-.39,10.79-.59,15.39l-1.24,14.5h-7.94l2.41-37.3h11.46l3.78,12.45c1.24,4.35,2.35,9,3.19,13.35h0c1-4.34,2.35-9.26,3.65-13.41l4-12.39h11.33l2,37.3h-8.34Z"/>
</svg>