<svg id="Layer_1" data-name="Layer 1" xmlns="http://www.w3.org/2000/svg" viewBox="0 0 198.62 62.23"><defs><style>.cls-1{fill:#fff;}.cls-2{fill:#35c4f3;}</style></defs><title>logo</title><path class="cls-1" d="M12.89,0h7.3V25.36q0,6.06-1,8.5A8.13,8.13,0,0,1,16,37.75a9.54,9.54,0,0,1-5.3,1.44Q4.45,39.19,0,33.65l5.25-4.91a12.45,12.45,0,0,0,3,2.65,4.93,4.93,0,0,0,2.37.68,1.89,1.89,0,0,0,1.74-1c.38-.66.57-2.1.57-4.34Z"/><path class="cls-1" d="M28.12,10h7.17V23.57a18.64,18.64,0,0,0,.55,5.52A4.83,4.83,0,0,0,37.6,31.5a5,5,0,0,0,3,.85,5.23,5.23,0,0,0,3-.84A5,5,0,0,0,45.42,29a18.74,18.74,0,0,0,.45-5.23V10H53V22q0,7.41-1.17,10.14a10.89,10.89,0,0,1-4.21,5.1A12.85,12.85,0,0,1,40.51,39,12.52,12.52,0,0,1,33,36.88a11,11,0,0,1-4-5.8c-.56-1.71-.83-4.83-.83-9.35Z"/><path class="cls-1" d="M57.05,10h7.23l7.15,16.69L78.55,10h7.19l-12,28.28h-4.6Z"/><path class="cls-1" d="M118.21,26.14H95.42a7.59,7.59,0,0,0,2.64,4.8,8.26,8.26,0,0,0,5.47,1.78,9.52,9.52,0,0,0,6.84-2.78l6,2.8A14,14,0,0,1,111,37.43,16.68,16.68,0,0,1,103.58,39a14.63,14.63,0,0,1-10.83-4.19A14.3,14.3,0,0,1,88.56,24.3a14.76,14.76,0,0,1,4.17-10.8,14,14,0,0,1,10.46-4.27,14.54,14.54,0,0,1,10.87,4.27q4.18,4.28,4.18,11.29Zm-7.09-5.58a7.13,7.13,0,0,0-2.77-3.85,8,8,0,0,0-4.81-1.48,8.51,8.51,0,0,0-5.2,1.66,9.17,9.17,0,0,0-2.6,3.67Z"/><path class="cls-1" d="M124,10h7.09v2.9a17.28,17.28,0,0,1,4.33-2.9,10.56,10.56,0,0,1,4-.79,9.72,9.72,0,0,1,7.14,2.93c1.64,1.66,2.46,4.13,2.46,7.38V38.23h-7V25.85a31,31,0,0,0-.46-6.73A4.56,4.56,0,0,0,140,16.59a4.4,4.4,0,0,0-2.78-.87,5.26,5.26,0,0,0-3.7,1.44,7.72,7.72,0,0,0-2.14,4,33.26,33.26,0,0,0-.31,5.73V38.23H124Z"/><path class="cls-1" d="M176.76,10h7.1V38.23h-7.1v-3a14,14,0,0,1-4.16,2.84,11.74,11.74,0,0,1-4.53.87,12.58,12.58,0,0,1-9.48-4.24,14.88,14.88,0,0,1-4-10.57,15.23,15.23,0,0,1,3.86-10.73,12.32,12.32,0,0,1,9.4-4.18,11.91,11.91,0,0,1,4.78,1,12.88,12.88,0,0,1,4.12,2.88Zm-7.45,5.82a7.19,7.19,0,0,0-5.47,2.33,8.39,8.39,0,0,0-2.18,6,8.42,8.42,0,0,0,2.22,6,7.17,7.17,0,0,0,5.45,2.37,7.27,7.27,0,0,0,5.54-2.33,8.49,8.49,0,0,0,2.2-6.09,8.26,8.26,0,0,0-2.2-6,7.4,7.4,0,0,0-5.56-2.33Z"/><path class="cls-2" d="M101.3,42.51h3.45L109.06,56l4.35-13.5h3.44L120,61.86h-3.42l-2-12.22-4,12.22h-3.12l-3.92-12.22-2,12.22H98.08Z"/><path class="cls-2" d="M132.56,47.55H136V61.86h-3.45V60.35a6.63,6.63,0,0,1-2,1.44,5.37,5.37,0,0,1-2.2.44,6,6,0,0,1-4.61-2.15,7.68,7.68,0,0,1-1.94-5.35,7.87,7.87,0,0,1,1.88-5.43,5.93,5.93,0,0,1,4.57-2.12,5.46,5.46,0,0,1,2.32.49,6.29,6.29,0,0,1,2,1.46Zm-3.63,3a3.45,3.45,0,0,0-2.66,1.17,4.88,4.88,0,0,0,0,6.07,3.59,3.59,0,0,0,5.08.27l.27-.27a4.39,4.39,0,0,0,1.07-3.08,4.3,4.3,0,0,0-1.07-3,3.52,3.52,0,0,0-2.69-1.21Z"/><path class="cls-2" d="M138.69,47.55h3v1.8A3.82,3.82,0,0,1,143,47.73a3,3,0,0,1,1.75-.55,3.11,3.11,0,0,1,1.4.37L145,50.64a2.38,2.38,0,0,0-1-.31,1.6,1.6,0,0,0-1.35,1,9.71,9.71,0,0,0-.55,4v6.48h-3.42Z"/><path class="cls-2" d="M149.12,41.66a2.07,2.07,0,0,1,1.56.68,2.43,2.43,0,0,1,0,3.3,2.12,2.12,0,0,1-3,.11,1.14,1.14,0,0,1-.11-.11,2.36,2.36,0,0,1-.65-1.67,2.27,2.27,0,0,1,.64-1.62A2.1,2.1,0,0,1,149.12,41.66Zm-1.72,5.89h3.45V61.86H147.4Z"/><path class="cls-2" d="M154,47.55h3.45V49a8.08,8.08,0,0,1,2.13-1.44,5,5,0,0,1,1.95-.4A4.66,4.66,0,0,1,165,48.67a5.22,5.22,0,0,1,1.2,3.73v9.46h-3.41V55.59a16.81,16.81,0,0,0-.22-3.4,2.33,2.33,0,0,0-.77-1.28,2.15,2.15,0,0,0-1.36-.44,2.49,2.49,0,0,0-1.8.73,4,4,0,0,0-1,2,17.56,17.56,0,0,0-.15,2.9v5.74H154Z"/><path class="cls-2" d="M183.29,55.75H172.21a3.74,3.74,0,0,0,3.94,3.32,4.54,4.54,0,0,0,3.33-1.4l2.9,1.42a6.89,6.89,0,0,1-2.6,2.37,7.86,7.86,0,0,1-3.6.77,7,7,0,0,1-5.27-2.12,7.41,7.41,0,0,1-2-5.33,7.66,7.66,0,0,1,2-5.43A6.65,6.65,0,0,1,176,47.18a6.92,6.92,0,0,1,5.28,2.17,8,8,0,0,1,2,5.71Zm-3.45-2.83a3.6,3.6,0,0,0-1.35-2,3.82,3.82,0,0,0-2.33-.75,4,4,0,0,0-2.54.84,4.84,4.84,0,0,0-1.26,1.86Z"/><path class="cls-1" d="M188.72,6.22h-1.58V5.11h4.49V6.22H190V11h-1.31Z"/><path class="cls-1" d="M197.27,8.72c0-.71-.05-1.55-.05-2.4h0c-.19.74-.43,1.57-.66,2.26l-.71,2.28h-1l-.62-2.26c-.19-.69-.38-1.51-.53-2.28h0c0,.78-.06,1.69-.09,2.41L193.42,11H192.2l.37-5.84h1.76l.58,2c.19.68.36,1.41.49,2.09h0c.16-.68.36-1.45.56-2.1l.61-1.94h1.74l.31,5.84h-1.28Z"/></svg>